<svg width="720" height="560" viewBox="0 0 720 560" fill="none" xmlns="http://www.w3.org/2000/svg">
  <rect width="720" height="560" rx="44" fill="#07181D"/>
  <circle cx="360" cy="295" r="220" fill="#0B2027"/>
  <ellipse cx="360" cy="365" rx="238" ry="118" fill="#050A0C"/>
  <ellipse cx="360" cy="314" rx="214" ry="132" fill="#F7E5C4"/>
  <path d="M189 300c53-71 130-107 220-96 66 8 118 37 154 86-33 74-105 121-198 121-82 0-145-37-176-111Z" fill="#F5B642"/>
  <path d="M217 300c65-30 132-38 201-23 49 10 91 29 126 57-44 37-101 58-169 58-69 0-122-29-158-92Z" fill="#C85C26"/>
  <path d="M242 268c36-19 85-24 145-14" stroke="#FFF7E6" stroke-width="12" stroke-linecap="round"/>
  <path d="M311 334c49 16 104 14 164-6" stroke="#FFF7E6" stroke-width="10" stroke-linecap="round"/>
  <path d="M258 358c45 21 92 25 141 12" stroke="#35C46F" stroke-width="10" stroke-linecap="round"/>
  <circle cx="292" cy="294" r="16" fill="#EF3F2E"/>
  <circle cx="453" cy="282" r="14" fill="#EF3F2E"/>
  <circle cx="408" cy="354" r="13" fill="#35C46F"/>
</svg>
