<svg width="720" height="560" viewBox="0 0 720 560" fill="none" xmlns="http://www.w3.org/2000/svg">
  <rect width="720" height="560" rx="44" fill="#061014"/>
  <circle cx="360" cy="292" r="230" fill="#0B2027"/>
  <circle cx="360" cy="292" r="195" fill="#FFF7E6"/>
  <path d="M153 323c68-103 176-161 327-174 42-4 83-1 124 9-78 125-191 202-336 231-50 10-90 4-115-66Z" fill="#D77720"/>
  <path d="M183 317c69-75 162-120 279-136 34-5 67-5 100-1-66 84-154 140-265 168-51 13-90 3-114-31Z" fill="#FFCB57"/>
  <circle cx="497" cy="377" r="42" fill="#EF3F2E"/>
  <circle cx="505" cy="370" r="25" fill="#B91C1C"/>
  <circle cx="426" cy="421" r="43" fill="#35C46F"/>
  <circle cx="428" cy="421" r="24" fill="#166534"/>
  <circle cx="540" cy="298" r="40" fill="#FFF7E6"/>
  <circle cx="540" cy="298" r="24" fill="#F7B733"/>
</svg>
