<svg width="720" height="560" viewBox="0 0 720 560" fill="none" xmlns="http://www.w3.org/2000/svg">
  <rect width="720" height="560" rx="44" fill="#07181D"/>
  <circle cx="357" cy="295" r="230" fill="#0B2027"/>
  <ellipse cx="357" cy="318" rx="205" ry="160" fill="#FFF7E6"/>
  <ellipse cx="357" cy="318" rx="174" ry="130" fill="#C72C22"/>
  <path d="M228 296c57-55 138-74 217-50 47 15 82 42 107 82-45 56-111 86-199 91-75 5-119-35-125-123Z" fill="#EF6B2E"/>
  <rect x="281" y="245" width="74" height="58" rx="12" fill="#FFE8B3" transform="rotate(-10 281 245)"/>
  <rect x="398" y="283" width="79" height="60" rx="12" fill="#FFE8B3" transform="rotate(8 398 283)"/>
  <rect x="306" y="357" width="74" height="56" rx="12" fill="#FFE8B3" transform="rotate(11 306 357)"/>
  <path d="M253 338c61 29 130 31 207 7" stroke="#35C46F" stroke-width="11" stroke-linecap="round"/>
  <path d="M271 283c43-17 92-22 148-14" stroke="#FFB703" stroke-width="10" stroke-linecap="round"/>
</svg>
