<svg width="720" height="560" viewBox="0 0 720 560" fill="none" xmlns="http://www.w3.org/2000/svg">
  <rect width="720" height="560" rx="44" fill="#061014"/>
  <circle cx="360" cy="292" r="220" fill="#0B2027"/>
  <ellipse cx="360" cy="346" rx="225" ry="118" fill="#050A0C"/>
  <ellipse cx="360" cy="306" rx="205" ry="130" fill="#FFF7E6"/>
  <path d="M208 310c72-76 165-103 277-80 35 7 65 19 91 35-24 87-94 132-211 136-86 3-139-28-157-91Z" fill="#E85D04"/>
  <circle cx="301" cy="283" r="33" fill="#F7B733"/>
  <circle cx="400" cy="265" r="36" fill="#F7B733"/>
  <circle cx="480" cy="315" r="32" fill="#F7B733"/>
  <circle cx="344" cy="356" r="33" fill="#F7B733"/>
  <path d="M251 323c71 30 154 31 250 3" stroke="#FFF7E6" stroke-width="10" stroke-linecap="round"/>
  <path d="M275 274c62-9 124-4 187 14" stroke="#35C46F" stroke-width="10" stroke-linecap="round"/>
  <path d="M295 384c56 8 111 3 163-14" stroke="#EF3F2E" stroke-width="10" stroke-linecap="round"/>
</svg>
